<svg xmlns="http://www.w3.org/2000/svg" width="76.562" height="57.187" viewBox="0 0 76.562 57.187">
  <defs>
    <style>
      .cls-1 {
        fill: #ffc400;
        fill-rule: evenodd;
      }
    </style>
  </defs>
  <path id="Composite_Path" data-name="Composite Path" class="cls-1" d="M997.681,599.981a6.743,6.743,0,0,0-12.384.205l-23.214-8.77a8.722,8.722,0,0,0-7.535-10.645l0.171-8.89a6.744,6.744,0,1,0-2-.038l-0.171,8.923a8.728,8.728,0,0,0-6.517,13.139L933.17,604.056a6.741,6.741,0,1,0,1.443,2.052c-0.071-.157-0.154-0.307-0.234-0.457L947.246,595.5a8.742,8.742,0,0,0,14.176-2.192l23.39,8.834A6.748,6.748,0,1,0,997.681,599.981Zm-41.337-4.374a6.749,6.749,0,1,1,3.373-8.929A6.756,6.756,0,0,1,956.344,595.607Z" transform="translate(-921.719 -558.438)"/>
</svg>
